<svg width="32" height="32" viewBox="0 0 32 32" fill="none" xmlns="http://www.w3.org/2000/svg">
<path d="M27.1135 6.30564C26.9445 6.13765 26.7455 6.05314 26.5155 6.05314C26.401 6.05314 26.1595 6.14714 25.7925 6.33264C25.425 6.51864 25.035 6.72565 24.6245 6.95665C24.213 7.18614 23.726 7.39415 23.164 7.58014C22.6025 7.76565 22.0825 7.85964 21.604 7.85964C21.162 7.85964 20.772 7.77564 20.436 7.60714C19.3215 7.08514 18.352 6.69564 17.529 6.43864C16.706 6.18214 15.821 6.05314 14.8735 6.05314C13.2375 6.05314 11.374 6.58514 9.285 7.64714C8.854 7.86214 8.545 8.02865 8.345 8.15065L8.1465 6.69515C8.595 6.30564 8.8845 5.73814 8.8845 5.09764C8.8845 3.92414 7.9335 2.97314 6.76 2.97314C5.5865 2.97314 4.6355 3.92414 4.6355 5.09764C4.6355 5.86314 5.0445 6.52865 5.6515 6.90265L8.5215 27.9476C8.607 28.5741 9.143 29.0286 9.7585 29.0286C9.8145 29.0286 9.8715 29.0251 9.929 29.0176C10.613 28.9236 11.092 28.2941 10.9985 27.6101L9.845 19.1516C11.938 18.1131 13.7485 17.5896 15.2715 17.5896C15.918 17.5896 16.5485 17.6861 17.163 17.8811C17.778 18.0766 18.2895 18.2886 18.6965 18.5181C19.1035 18.7481 19.584 18.9611 20.1365 19.1551C20.69 19.3501 21.2365 19.4476 21.776 19.4476C23.139 19.4476 24.7715 18.9341 26.674 17.9076C26.913 17.7836 27.088 17.6616 27.1985 17.5421C27.309 17.4226 27.3645 17.2526 27.3645 17.0316V6.90314C27.3645 6.67364 27.281 6.47414 27.1135 6.30564Z" fill="#F0145A"/>
</svg>
