<svg width="413" height="63" viewBox="0 0 413 63" fill="none" xmlns="http://www.w3.org/2000/svg">
<g clip-path="url(#clip0)">
<path d="M10.3513 58.0912C10.3513 56.9798 9.9699 56.0427 9.21807 55.2691C8.46624 54.4955 7.55097 54.1141 6.48316 54.1141C5.51341 54.1141 4.67441 54.4192 3.96617 55.0403C3.26882 55.6505 2.83298 56.3914 2.66953 57.274H1.63441V54.2776H0V61.9048H1.63441V58.7994H2.66953C2.83298 59.7256 3.26882 60.5101 3.96617 61.1312C4.66351 61.7523 5.50251 62.0683 6.48316 62.0683C7.55097 62.0683 8.46624 61.6869 9.21807 60.9133C9.9699 60.1506 10.3513 59.2026 10.3513 58.0912ZM8.71685 58.0912C8.71685 58.8103 8.49893 59.4096 8.06309 59.8781C7.61635 60.3576 7.09334 60.5973 6.48316 60.5973C5.87298 60.5973 5.34997 60.3576 4.91412 59.8781C4.46738 59.4096 4.24946 58.8103 4.24946 58.0912C4.24946 57.3721 4.46738 56.7728 4.91412 56.2933C5.34997 55.8248 5.87298 55.5851 6.48316 55.5851C7.09334 55.5851 7.61635 55.8248 8.06309 56.2933C8.49893 56.7728 8.71685 57.3721 8.71685 58.0912Z" fill="white"/>
<path d="M12.9604 54.2781V61.9054H14.5949V59.3993H16.1748C16.9593 59.3993 17.6131 59.1487 18.1252 58.6584C18.6373 58.168 18.8988 57.5578 18.8988 56.8387C18.8988 56.1087 18.6373 55.5094 18.1252 55.0082C17.6022 54.5179 16.9593 54.2781 16.1748 54.2781H12.9604ZM16.1203 55.7491C16.4472 55.7491 16.7196 55.8581 16.9375 56.0651C17.1554 56.2721 17.2644 56.5336 17.2644 56.8387C17.2644 57.1438 17.1554 57.4053 16.9375 57.6123C16.7196 57.8194 16.4472 57.9283 16.1203 57.9283H14.5949V55.7491H16.1203Z" fill="white"/>
<path d="M28.2617 61.9054V54.2781H26.8452L23.0861 59.1269V54.2781H21.4517V61.9054H22.8681L26.6273 57.0566V61.9054H28.2617Z" fill="white"/>
<path d="M30.3247 60.4344V63.4853H31.9591V61.9054H36.5355V63.4853H38.1699V60.4344H37.2437V54.2781H31.9591V56.6208C31.9591 57.1329 31.9155 57.6123 31.8284 58.0591C31.7412 58.5167 31.6431 58.8763 31.5451 59.1487C31.4361 59.4102 31.3162 59.6499 31.1746 59.8787C31.033 60.0966 30.9458 60.2383 30.8913 60.3037C30.8259 60.3581 30.7932 60.4126 30.7605 60.4344H30.3247ZM33.5935 56.6208V55.7491H35.6093V60.4344H32.395L32.5257 60.3037C32.602 60.2165 32.7 60.0748 32.8199 59.8678C32.9398 59.6608 33.0487 59.4211 33.1686 59.1487C33.2884 58.8763 33.3865 58.5058 33.4628 58.0591C33.5499 57.6123 33.5935 57.1329 33.5935 56.6208Z" fill="white"/>
<path d="M47.3115 61.9054V54.2781H45.895L42.1359 59.1269V54.2781H40.5015V61.9054H41.918L45.6771 57.0566V61.9054H47.3115Z" fill="white"/>
<path d="M51.8815 54.2781H50.2471V56.6208C50.2471 57.5361 50.4868 58.2443 50.9662 58.7455C51.4565 59.2576 52.1212 59.5082 52.9711 59.5082C53.7011 59.5082 54.3004 59.3666 54.7689 59.0724V61.9054H56.4033V54.2781H54.7689V57.4925L54.5837 57.6341C54.4638 57.7213 54.2786 57.8085 54.028 57.9065C53.7774 57.9937 53.5159 58.0373 53.2435 58.0373C52.8076 58.0373 52.4699 57.9174 52.2302 57.6777C52.0013 57.4271 51.8815 57.0784 51.8815 56.6208V54.2781Z" fill="white"/>
<path d="M65.9859 54.2781H64.3515V57.329H61.0827V54.2781H59.4482V61.9054H61.0827V58.8H64.3515V61.9054H65.9859V54.2781Z" fill="white"/>
<path d="M72.9549 58.691H71.1026L72.0288 56.1849L72.9549 58.691ZM73.4997 60.1075L74.1535 61.9054H75.8969L72.9004 54.2781H71.1571L68.1606 61.9054H69.904L70.5578 60.1075H73.4997Z" fill="white"/>
<path d="M83.0221 54.2781H81.3877V61.9054H83.0221V59.7262L84.0027 58.6366L86.2364 61.9054H88.1432L85.0924 57.438L87.9253 54.2781H86.0185L83.0221 57.6014V54.2781Z" fill="white"/>
<path d="M91.4614 58.0912C91.4614 57.3939 91.7011 56.7946 92.1805 56.3151C92.649 55.8248 93.2265 55.5851 93.913 55.5851C94.5994 55.5851 95.1769 55.8248 95.6454 56.3151C96.1249 56.7946 96.3646 57.3939 96.3646 58.0912C96.3646 58.7994 96.1249 59.3878 95.6454 59.8673C95.1769 60.3576 94.5994 60.5973 93.913 60.5973C93.2265 60.5973 92.649 60.3576 92.1805 59.8673C91.7011 59.3878 91.4614 58.7994 91.4614 58.0912ZM89.7725 58.0912C89.7725 59.1808 90.1756 60.1288 90.971 60.9024C91.7664 61.676 92.7471 62.0683 93.913 62.0683C95.0788 62.0683 96.0595 61.676 96.8549 60.9024C97.6503 60.1288 98.0535 59.1808 98.0535 58.0912C98.0535 56.9907 97.6503 56.0536 96.8549 55.28C96.0595 54.5064 95.0788 54.1141 93.913 54.1141C92.7471 54.1141 91.7664 54.5064 90.971 55.28C90.1756 56.0536 89.7725 56.9907 89.7725 58.0912Z" fill="white"/>
<path d="M104.749 57.6014L102.134 54.2781H100.663V61.9054H102.297V56.8387L104.749 59.9441L107.2 56.8169V61.9054H108.835V54.2781H107.385L104.749 57.6014Z" fill="white"/>
<path d="M118.36 54.2781H111.876V61.9054H113.511V55.7491H116.725V61.9054H118.36V54.2781Z" fill="white"/>
<path d="M125.33 58.691H123.478L124.404 56.1849L125.33 58.691ZM125.875 60.1075L126.528 61.9054H128.272L125.275 54.2781H123.532L120.536 61.9054H122.279L122.933 60.1075H125.875Z" fill="white"/>
<path d="M136.983 54.2781H135.349V57.329H132.08V54.2781H130.445V61.9054H132.08V58.8H135.349V61.9054H136.983V54.2781Z" fill="white"/>
<path d="M141.662 54.2781H140.027V61.9054H141.662V54.2781Z" fill="white"/>
<path d="M150.373 54.2781H146.995C146.232 54.2781 145.611 54.5179 145.121 54.9973C144.63 55.4767 144.38 56.076 144.38 56.7842C144.38 57.0893 144.434 57.3726 144.521 57.645C144.62 57.9174 144.728 58.1244 144.859 58.277C144.979 58.4295 145.11 58.5712 145.273 58.7019C145.426 58.8327 145.535 58.9199 145.6 58.9525C145.655 58.9743 145.709 59.007 145.742 59.0179L144.107 61.9054H145.851L147.322 59.2358H148.738V61.9054H150.373V54.2781ZM146.014 56.7842C146.014 56.4791 146.112 56.2394 146.308 56.0433C146.505 55.8472 146.755 55.7491 147.049 55.7491H148.738V57.7649H147.049C146.755 57.7649 146.505 57.6668 146.308 57.4816C146.112 57.2963 146.014 57.0566 146.014 56.7842Z" fill="white"/>
<path d="M4.98113 1.00006H0V36.975H4.98113V23.6286C4.98113 21.3708 5.54273 19.5896 6.66593 18.3353C7.78912 17.0809 9.32741 16.4286 11.232 16.4286C12.8679 16.4286 14.2353 17.0307 15.3341 18.1847C16.4329 19.3638 16.9944 20.844 16.9944 22.6251V37.0001H22V22.6251C22 19.3137 21.0966 16.7046 19.2897 14.7478C17.4828 12.791 15.1143 11.8126 12.2331 11.8126C11.4029 11.8126 10.5727 11.913 9.76693 12.1387C8.93674 12.3645 8.27747 12.6154 7.74029 12.8913C7.20311 13.1673 6.69034 13.4684 6.22642 13.8196C5.76249 14.1708 5.44506 14.4217 5.29856 14.5722C5.15205 14.7227 5.02997 14.8231 4.98113 14.8983V1.00006Z" fill="#F0145A"/>
<path d="M33.135 1H28V36.945H33.135V1Z" fill="white"/>
<path d="M63.422 26.4178L63.6788 23.8503C63.6788 20.4098 62.5491 17.5342 60.2383 15.2235C57.9276 12.9127 55.052 11.783 51.6115 11.783C48.1711 11.783 45.1928 13.0154 42.728 15.4802C40.2632 17.945 39.0308 20.872 39.0308 24.3638C39.0308 27.9583 40.3145 31.0393 42.8307 33.6068C45.3468 36.1743 48.3765 37.458 51.8683 37.458C53.2034 37.458 54.4358 37.2526 55.6682 36.8932C56.9006 36.4824 57.9276 36.0716 58.6465 35.6608C59.4167 35.1986 60.187 34.6851 60.8545 34.1203C61.5221 33.5554 61.9842 33.1446 62.1896 32.8879C62.395 32.6311 62.5491 32.4771 62.6518 32.323L59.314 28.9853L58.5438 29.9609C58.0303 30.5771 57.1573 31.1933 55.9249 31.8609C54.6412 32.5284 53.3061 32.8365 51.8683 32.8365C49.8656 32.8365 48.1711 32.2203 46.7333 30.9366C45.2955 29.6528 44.4225 28.1637 44.1658 26.4178H63.422ZM51.6115 16.1478C53.5115 16.1478 55.052 16.7126 56.3357 17.791C57.5681 18.9207 58.3384 20.3071 58.6465 22.053H44.3712C44.8333 20.3071 45.6549 18.9207 46.9387 17.791C48.1711 16.7126 49.7629 16.1478 51.6115 16.1478Z" fill="white"/>
<path d="M87.3711 35.4554C87.3711 37.7148 86.7035 39.5634 85.3171 41.0012C83.982 42.3876 82.2874 43.1065 80.1821 43.1065C79.2578 43.1065 78.3335 42.9525 77.4605 42.6957C76.5876 42.439 75.92 42.1309 75.3552 41.7714C74.7903 41.412 74.2768 41.0525 73.7633 40.5904C73.3012 40.1282 72.9931 39.8201 72.839 39.6661C72.685 39.512 72.5823 39.358 72.4796 39.2553L69.1418 42.593L69.5526 43.1065C69.8094 43.466 70.2715 43.9281 70.8877 44.4416C71.5039 44.9038 72.2228 45.4173 73.0444 45.9308C73.866 46.3929 74.893 46.8037 76.1768 47.1632C77.4605 47.5226 78.7956 47.728 80.1821 47.728C83.6739 47.728 86.5495 46.547 88.9629 44.1849C91.325 41.7714 92.5061 38.8958 92.5061 35.404V12.2965H87.3711V14.864L86.4981 14.0938C85.9333 13.5803 85.0603 13.0668 83.8279 12.5533C82.5955 12.0398 81.2604 11.783 79.9253 11.783C76.793 11.783 74.1228 12.9641 71.812 15.3775C69.5013 17.791 68.3716 20.6666 68.3716 24.107C68.3716 27.5475 69.5013 30.4231 71.812 32.8365C74.1228 35.25 76.793 36.431 79.9253 36.431C80.7983 36.431 81.6199 36.3283 82.4928 36.1229C83.3144 35.8662 83.982 35.6094 84.5468 35.3527C85.1117 35.0959 85.6252 34.7878 86.0873 34.4284C86.5495 34.0689 86.9089 33.8122 87.0116 33.7095L87.3711 33.35V35.4554ZM73.5066 24.107C73.5066 21.9503 74.1741 20.1531 75.5606 18.6639C76.947 17.1748 78.5902 16.4045 80.4388 16.4045C82.2874 16.4045 83.9306 17.1748 85.3171 18.6639C86.6522 20.1531 87.3711 21.9503 87.3711 24.107C87.3711 26.2637 86.6522 28.061 85.3171 29.5501C83.9306 31.0393 82.2874 31.8095 80.4388 31.8095C78.5902 31.8095 76.947 31.0393 75.5606 29.5501C74.1741 28.061 73.5066 26.2637 73.5066 24.107Z" fill="white"/>
<path d="M119.309 36.9445V21.026C119.309 18.4072 118.333 16.1991 116.433 14.4532C114.533 12.656 112.068 11.783 109.039 11.783C107.858 11.783 106.677 11.9371 105.547 12.2452C104.417 12.6046 103.493 12.9641 102.825 13.3749C102.158 13.7857 101.49 14.2478 100.874 14.8127C100.258 15.3262 99.8985 15.6856 99.6931 15.891C99.539 16.0964 99.385 16.2505 99.2823 16.4045L102.62 19.7423L103.288 18.8693C103.698 18.3045 104.417 17.791 105.496 17.2261C106.574 16.6613 107.755 16.4045 109.039 16.4045C110.528 16.4045 111.76 16.8667 112.736 17.7396C113.712 18.6126 114.174 19.7423 114.174 21.026L105.188 22.5665C102.979 22.926 101.182 23.7989 99.9498 25.1854C98.6661 26.5718 97.9985 28.2664 97.9985 30.269C97.9985 32.169 98.8201 33.8122 100.463 35.25C102.158 36.7391 104.212 37.458 106.728 37.458C107.601 37.458 108.423 37.3553 109.244 37.0986C110.117 36.8932 110.785 36.6364 111.35 36.3797C111.914 36.1229 112.428 35.8148 112.89 35.4554C113.352 35.0959 113.66 34.8392 113.866 34.7365C114.02 34.5824 114.122 34.4284 114.174 34.377V36.9445H119.309ZM107.498 32.8365C106.163 32.8365 105.085 32.5284 104.315 31.9122C103.493 31.296 103.134 30.5771 103.134 29.7555C103.134 28.8826 103.39 28.1123 103.955 27.5475C104.52 26.9826 105.29 26.5718 106.215 26.4178L114.174 25.134V25.6475C114.174 27.9583 113.609 29.7042 112.428 30.9879C111.247 32.2203 109.604 32.8365 107.498 32.8365Z" fill="white"/>
<path d="M130.64 1H125.505V36.945H130.64V1Z" fill="white"/>
<path d="M153.989 15.1208L153.681 14.7613C153.475 14.5559 153.167 14.2992 152.705 13.9397C152.243 13.5803 151.729 13.2722 151.164 12.9127C150.6 12.6046 149.829 12.3479 148.905 12.0911C147.981 11.8857 147.005 11.783 146.029 11.783C143.513 11.783 141.459 12.5019 139.816 13.9397C138.122 15.4289 137.3 17.0721 137.3 18.972C137.3 20.3585 137.608 21.4882 138.224 22.5152C138.84 23.4908 139.611 24.2097 140.586 24.6205C141.511 25.0827 142.538 25.5448 143.616 25.9043C144.694 26.2637 145.67 26.5718 146.646 26.8286C147.57 27.1367 148.34 27.4961 148.956 27.9583C149.573 28.4204 149.881 29.0366 149.881 29.7555C149.881 30.6798 149.521 31.4501 148.854 32.0149C148.186 32.5284 147.159 32.8365 145.773 32.8365C144.643 32.8365 143.513 32.5284 142.435 32.0149C141.357 31.4501 140.689 30.9879 140.33 30.6285C140.022 30.269 139.765 29.9609 139.611 29.7555L136.273 33.0933L136.632 33.5554C136.889 33.8635 137.249 34.223 137.762 34.6338C138.327 35.0959 138.943 35.5067 139.611 35.9175C140.33 36.3283 141.254 36.6878 142.332 36.9959C143.411 37.304 144.592 37.458 145.773 37.458C148.494 37.458 150.754 36.6878 152.448 35.1986C154.143 33.7095 155.016 31.8609 155.016 29.7555C155.016 28.3691 154.708 27.188 154.091 26.2637C153.475 25.2881 152.705 24.5692 151.729 24.107C150.805 23.5935 149.778 23.1827 148.7 22.8233C147.621 22.4638 146.646 22.1044 145.67 21.899C144.746 21.6422 143.975 21.2314 143.359 20.7693C142.743 20.3071 142.435 19.6909 142.435 18.972C142.435 18.3045 142.743 17.6883 143.411 17.1748C144.027 16.6613 144.9 16.4045 146.029 16.4045C146.851 16.4045 147.673 16.6099 148.443 16.9694C149.265 17.3288 149.829 17.6369 150.086 17.8937C150.343 18.1504 150.548 18.3558 150.651 18.4585L153.989 15.1208Z" fill="white"/>
<path d="M196.957 37H199.629V18.7607H183.857V37H186.511V21.2656H196.957V37ZM220.336 27.8896C220.336 29.8564 219.668 31.5264 218.369 32.8809C217.07 34.2354 215.493 34.9033 213.675 34.9033C211.856 34.9033 210.279 34.2354 208.98 32.8623C207.682 31.4893 207.032 29.8379 207.032 27.8711C207.032 25.9043 207.682 24.2529 208.98 22.8984C210.279 21.5439 211.856 20.8574 213.675 20.8574C215.493 20.8574 217.07 21.5439 218.369 22.8984C219.668 24.2529 220.336 25.9229 220.336 27.8896ZM204.379 27.8896C204.379 30.5615 205.27 32.8066 207.088 34.6436C208.906 36.4619 211.096 37.3896 213.693 37.3896C216.272 37.3896 218.462 36.4619 220.262 34.6436C222.08 32.8066 222.971 30.5615 222.971 27.8896C222.971 25.2178 222.08 22.9727 220.262 21.1357C218.462 19.2988 216.272 18.3711 213.693 18.3711C211.096 18.3711 208.906 19.2988 207.088 21.1357C205.27 22.9727 204.379 25.2178 204.379 27.8896ZM226.422 27.8711C226.422 30.5059 227.312 32.751 229.112 34.6064C230.894 36.4619 233.046 37.3711 235.532 37.3711C236.423 37.3711 237.295 37.2412 238.148 36.9629C239.002 36.6846 239.707 36.3877 240.245 36.0537C240.802 35.7197 241.321 35.3486 241.804 34.9219C242.305 34.4951 242.639 34.1982 242.787 34.0127C242.936 33.8271 243.047 33.6973 243.121 33.5859L241.229 31.8789L240.616 32.6211C240.189 33.1406 239.503 33.6416 238.557 34.1426C237.592 34.6621 236.59 34.9033 235.532 34.9033C233.788 34.9033 232.267 34.2354 230.986 32.8809C229.706 31.5264 229.075 29.8564 229.075 27.8896C229.075 25.9229 229.706 24.2529 230.986 22.8984C232.267 21.5439 233.788 20.8574 235.532 20.8574C236.219 20.8574 236.887 20.9688 237.518 21.1729C238.148 21.3955 238.649 21.6367 239.058 21.8965C239.447 22.1562 239.818 22.4717 240.152 22.8242C240.486 23.1953 240.709 23.4365 240.802 23.5664C240.913 23.7148 240.987 23.8076 241.024 23.8818L242.936 21.9893L242.138 21.1172C241.618 20.5234 240.728 19.9111 239.503 19.2988C238.278 18.6865 236.942 18.3711 235.514 18.3711C233.046 18.3711 230.912 19.2988 229.112 21.1543C227.312 23.0098 226.422 25.2363 226.422 27.8711ZM249.207 18.7607V24.0859C249.207 27.0732 249.04 29.374 248.743 30.9883C248.446 32.584 248.075 33.623 247.63 34.0684C247.185 34.5137 246.572 34.7363 245.793 34.7363C245.273 34.7363 244.772 34.6064 244.271 34.3652V37.0186L244.531 37.0928C244.68 37.167 244.902 37.2227 245.218 37.2969C245.533 37.3525 245.849 37.3896 246.164 37.3896C247.073 37.3896 247.853 37.2041 248.502 36.833C249.133 36.4619 249.727 35.8125 250.265 34.8848C250.784 33.957 251.192 32.584 251.452 30.8027C251.712 29.0215 251.86 26.7764 251.86 24.1045V21.2471H259.839V37.0186H262.511V18.7793L249.207 18.7607ZM272.567 39.6533C271.881 41.5645 270.73 42.5107 269.116 42.5107C268.485 42.5107 267.854 42.3809 267.224 42.1211V44.6074L267.483 44.6816C267.669 44.7559 267.966 44.8301 268.337 44.8857C268.708 44.96 269.098 44.9785 269.506 44.9785C270.823 44.9785 271.918 44.5889 272.79 43.7725C273.644 42.9561 274.46 41.583 275.221 39.6533L283.589 18.7607H280.731L274.85 33.5859L268.949 18.7607H266.092L273.514 37L272.567 39.6533ZM299.36 18.7607H287.207V37H289.86V21.2285H299.36V18.7607ZM316.468 18.7607L305.446 32.4355V18.7607H302.793V37H305.057L316.078 23.3252V37H318.75V18.7607H316.468Z" fill="white"/>
<path fill-rule="evenodd" clip-rule="evenodd" d="M353.258 27.1452H341.329L346.585 11.1537L352.532 11.1888L349.079 21.7351L355.008 21.7386L353.258 27.1452Z" fill="url(#paint0_linear)"/>
<path fill-rule="evenodd" clip-rule="evenodd" d="M328.904 47.9044H323C323 47.9044 333.754 14.794 336.266 7.06476C337.441 3.44844 340.809 1 344.609 1H355.165C358.348 1 361.005 2.34505 362.657 4.61793C364.307 6.89094 364.776 9.79933 363.813 12.7664C362.849 15.7334 361.939 18.5342 361.105 21.1004C359.98 24.5654 356.863 26.953 353.259 27.1471C353.259 27.1471 353.24 27.1411 358.29 11.5924C358.736 10.2203 358.573 8.8772 357.873 7.91395C357.173 6.95083 355.993 6.3808 354.432 6.3808H345.374C343.596 6.3808 342.02 7.52656 341.47 9.21887L328.904 47.9044Z" fill="#F0145A"/>
<path fill-rule="evenodd" clip-rule="evenodd" d="M175.227 1H181.071L165.845 47.8434H160L175.227 1Z" fill="#F0145A"/>
</g>
<defs>
<linearGradient id="paint0_linear" x1="341.328" y1="24.0823" x2="354.6" y2="31.0167" gradientUnits="userSpaceOnUse">
<stop stop-color="#F0145A"/>
<stop offset="1" stop-color="#693264"/>
</linearGradient>
<clipPath id="clip0">
<rect width="413" height="63" fill="white"/>
</clipPath>
</defs>
</svg>
