<svg width="364" height="63" viewBox="0 0 364 63" fill="none" xmlns="http://www.w3.org/2000/svg">
<g clip-path="url(#clip0)">
<path d="M10.3513 58.0913C10.3513 56.9799 9.9699 56.0429 9.21807 55.2692C8.46624 54.4956 7.55097 54.1143 6.48316 54.1143C5.51341 54.1143 4.67441 54.4193 3.96617 55.0404C3.26882 55.6506 2.83298 56.3915 2.66953 57.2741H1.63441V54.2777H0V61.9049H1.63441V58.7996H2.66953C2.83298 59.7257 3.26882 60.5102 3.96617 61.1313C4.66351 61.7524 5.50251 62.0684 6.48316 62.0684C7.55097 62.0684 8.46624 61.687 9.21807 60.9134C9.9699 60.1507 10.3513 59.2027 10.3513 58.0913ZM8.71685 58.0913C8.71685 58.8105 8.49893 59.4097 8.06309 59.8783C7.61635 60.3577 7.09334 60.5974 6.48316 60.5974C5.87298 60.5974 5.34997 60.3577 4.91412 59.8783C4.46738 59.4097 4.24946 58.8105 4.24946 58.0913C4.24946 57.3722 4.46738 56.7729 4.91412 56.2935C5.34997 55.8249 5.87298 55.5852 6.48316 55.5852C7.09334 55.5852 7.61635 55.8249 8.06309 56.2935C8.49893 56.7729 8.71685 57.3722 8.71685 58.0913Z" fill="#46466E"/>
<path d="M12.9602 54.2783V61.9056H14.5946V59.3995H16.1745C16.9591 59.3995 17.6128 59.1489 18.1249 58.6585C18.6371 58.1682 18.8986 57.558 18.8986 56.8389C18.8986 56.1089 18.6371 55.5096 18.1249 55.0084C17.6019 54.518 16.9591 54.2783 16.1745 54.2783H12.9602ZM16.1201 55.7493C16.4469 55.7493 16.7193 55.8582 16.9373 56.0653C17.1552 56.2723 17.2641 56.5338 17.2641 56.8389C17.2641 57.144 17.1552 57.4055 16.9373 57.6125C16.7193 57.8195 16.4469 57.9285 16.1201 57.9285H14.5946V55.7493H16.1201Z" fill="#46466E"/>
<path d="M28.2617 61.9056V54.2783H26.8452L23.0861 59.1271V54.2783H21.4517V61.9056H22.8681L26.6273 57.0568V61.9056H28.2617Z" fill="#46466E"/>
<path d="M30.3245 60.4346V63.4855H31.9589V61.9056H36.5352V63.4855H38.1696V60.4346H37.2435V54.2783H31.9589V56.621C31.9589 57.1331 31.9153 57.6125 31.8281 58.0593C31.741 58.5169 31.6429 58.8765 31.5448 59.1489C31.4359 59.4104 31.316 59.6501 31.1744 59.8789C31.0327 60.0968 30.9455 60.2385 30.8911 60.3038C30.8257 60.3583 30.793 60.4128 30.7603 60.4346H30.3245ZM33.5933 56.621V55.7493H35.6091V60.4346H32.3947L32.5255 60.3038C32.6017 60.2167 32.6998 60.075 32.8197 59.868C32.9395 59.661 33.0485 59.4213 33.1683 59.1489C33.2882 58.8765 33.3863 58.506 33.4625 58.0593C33.5497 57.6125 33.5933 57.1331 33.5933 56.621Z" fill="#46466E"/>
<path d="M47.3115 61.9056V54.2783H45.895L42.1359 59.1271V54.2783H40.5015V61.9056H41.918L45.6771 57.0568V61.9056H47.3115Z" fill="#46466E"/>
<path d="M51.8817 54.2783H50.2473V56.621C50.2473 57.5362 50.487 58.2445 50.9665 58.7457C51.4568 59.2578 52.1214 59.5084 52.9713 59.5084C53.7014 59.5084 54.3007 59.3668 54.7692 59.0726V61.9056H56.4036V54.2783H54.7692V57.4927L54.5839 57.6343C54.4641 57.7215 54.2789 57.8086 54.0282 57.9067C53.7776 57.9939 53.5161 58.0375 53.2437 58.0375C52.8079 58.0375 52.4701 57.9176 52.2304 57.6779C52.0016 57.4273 51.8817 57.0786 51.8817 56.621V54.2783Z" fill="#46466E"/>
<path d="M65.9856 54.2783H64.3512V57.3292H61.0824V54.2783H59.448V61.9056H61.0824V58.8002H64.3512V61.9056H65.9856V54.2783Z" fill="#46466E"/>
<path d="M72.9549 58.6912H71.1026L72.0288 56.1851L72.9549 58.6912ZM73.4997 60.1077L74.1535 61.9056H75.8969L72.9004 54.2783H71.1571L68.1606 61.9056H69.904L70.5578 60.1077H73.4997Z" fill="#46466E"/>
<path d="M83.0223 54.2783H81.3879V61.9056H83.0223V59.7263L84.003 58.6367L86.2367 61.9056H88.1435L85.0926 57.4382L87.9256 54.2783H86.0188L83.0223 57.6016V54.2783Z" fill="#46466E"/>
<path d="M91.4614 58.0913C91.4614 57.394 91.7011 56.7947 92.1805 56.3153C92.649 55.8249 93.2265 55.5852 93.913 55.5852C94.5994 55.5852 95.1769 55.8249 95.6454 56.3153C96.1249 56.7947 96.3646 57.394 96.3646 58.0913C96.3646 58.7996 96.1249 59.388 95.6454 59.8674C95.1769 60.3577 94.5994 60.5974 93.913 60.5974C93.2265 60.5974 92.649 60.3577 92.1805 59.8674C91.7011 59.388 91.4614 58.7996 91.4614 58.0913ZM89.7725 58.0913C89.7725 59.1809 90.1756 60.1289 90.971 60.9025C91.7664 61.6761 92.7471 62.0684 93.913 62.0684C95.0788 62.0684 96.0595 61.6761 96.8549 60.9025C97.6503 60.1289 98.0535 59.1809 98.0535 58.0913C98.0535 56.9908 97.6503 56.0538 96.8549 55.2801C96.0595 54.5065 95.0788 54.1143 93.913 54.1143C92.7471 54.1143 91.7664 54.5065 90.971 55.2801C90.1756 56.0538 89.7725 56.9908 89.7725 58.0913Z" fill="#46466E"/>
<path d="M104.748 57.6016L102.133 54.2783H100.662V61.9056H102.297V56.8389L104.748 59.9443L107.2 56.8171V61.9056H108.834V54.2783H107.385L104.748 57.6016Z" fill="#46466E"/>
<path d="M118.359 54.2783H111.876V61.9056H113.511V55.7493H116.725V61.9056H118.359V54.2783Z" fill="#46466E"/>
<path d="M125.33 58.6912H123.478L124.404 56.1851L125.33 58.6912ZM125.875 60.1077L126.528 61.9056H128.272L125.275 54.2783H123.532L120.536 61.9056H122.279L122.933 60.1077H125.875Z" fill="#46466E"/>
<path d="M136.983 54.2783H135.349V57.3292H132.08V54.2783H130.446V61.9056H132.08V58.8002H135.349V61.9056H136.983V54.2783Z" fill="#46466E"/>
<path d="M141.662 54.2783H140.028V61.9056H141.662V54.2783Z" fill="#46466E"/>
<path d="M150.373 54.2783H146.995C146.232 54.2783 145.611 54.518 145.121 54.9975C144.63 55.4769 144.38 56.0762 144.38 56.7844C144.38 57.0895 144.434 57.3728 144.521 57.6452C144.62 57.9176 144.728 58.1246 144.859 58.2772C144.979 58.4297 145.11 58.5714 145.273 58.7021C145.426 58.8329 145.535 58.92 145.6 58.9527C145.655 58.9745 145.709 59.0072 145.742 59.0181L144.107 61.9056H145.851L147.322 59.236H148.738V61.9056H150.373V54.2783ZM146.014 56.7844C146.014 56.4793 146.112 56.2396 146.308 56.0435C146.505 55.8474 146.755 55.7493 147.049 55.7493H148.738V57.7651H147.049C146.755 57.7651 146.505 57.667 146.308 57.4818C146.112 57.2965 146.014 57.0568 146.014 56.7844Z" fill="#46466E"/>
<path d="M4.98113 1H0V36.9749H4.98113V23.6286C4.98113 21.3707 5.54273 19.5895 6.66593 18.3352C7.78912 17.0808 9.32741 16.4286 11.232 16.4286C12.8679 16.4286 14.2353 17.0307 15.3341 18.1847C16.4329 19.3638 16.9944 20.8439 16.9944 22.6251V37H22V22.6251C22 19.3136 21.0966 16.7045 19.2897 14.7477C17.4828 12.7909 15.1143 11.8125 12.2331 11.8125C11.4029 11.8125 10.5727 11.9129 9.76693 12.1387C8.93674 12.3645 8.27747 12.6153 7.74029 12.8913C7.20311 13.1672 6.69034 13.4683 6.22642 13.8195C5.76249 14.1707 5.44506 14.4216 5.29856 14.5721C5.15205 14.7226 5.02997 14.823 4.98113 14.8983V1Z" fill="#F0145A"/>
<path d="M33.135 1H28V36.945H33.135V1Z" fill="#323264"/>
<path d="M63.4223 26.418L63.679 23.8505C63.679 20.41 62.5493 17.5344 60.2386 15.2237C57.9278 12.9129 55.0522 11.7832 51.6118 11.7832C48.1713 11.7832 45.193 13.0156 42.7282 15.4804C40.2634 17.9452 39.031 20.8722 39.031 24.364C39.031 27.9585 40.3148 31.0395 42.8309 33.607C45.3471 36.1745 48.3767 37.4582 51.8685 37.4582C53.2036 37.4582 54.436 37.2528 55.6684 36.8934C56.9008 36.4826 57.9278 36.0718 58.6467 35.661C59.417 35.1988 60.1872 34.6853 60.8548 34.1205C61.5223 33.5556 61.9845 33.1448 62.1899 32.8881C62.3953 32.6313 62.5493 32.4773 62.652 32.3232L59.3143 28.9855L58.544 29.9611C58.0305 30.5773 57.1576 31.1935 55.9252 31.8611C54.6414 32.5286 53.3063 32.8367 51.8685 32.8367C49.8659 32.8367 48.1713 32.2205 46.7335 30.9368C45.2957 29.653 44.4228 28.1639 44.166 26.418H63.4223ZM51.6118 16.148C53.5117 16.148 55.0522 16.7128 56.336 17.7912C57.5684 18.9209 58.3386 20.3073 58.6467 22.0532H44.3714C44.8336 20.3073 45.6552 18.9209 46.9389 17.7912C48.1713 16.7128 49.7632 16.148 51.6118 16.148Z" fill="#323264"/>
<path d="M87.3711 35.4556C87.3711 37.715 86.7035 39.5636 85.3171 41.0014C83.982 42.3878 82.2874 43.1067 80.1821 43.1067C79.2578 43.1067 78.3335 42.9527 77.4605 42.6959C76.5876 42.4392 75.92 42.1311 75.3552 41.7716C74.7903 41.4122 74.2768 41.0527 73.7633 40.5906C73.3012 40.1284 72.9931 39.8203 72.839 39.6663C72.685 39.5122 72.5823 39.3582 72.4796 39.2555L69.1418 42.5932L69.5526 43.1067C69.8094 43.4662 70.2715 43.9283 70.8877 44.4418C71.5039 44.904 72.2228 45.4175 73.0444 45.931C73.866 46.3931 74.893 46.8039 76.1768 47.1634C77.4605 47.5228 78.7956 47.7282 80.1821 47.7282C83.6739 47.7282 86.5495 46.5472 88.9629 44.1851C91.325 41.7716 92.5061 38.896 92.5061 35.4042V12.2967H87.3711V14.8642L86.4981 14.094C85.9333 13.5805 85.0603 13.067 83.8279 12.5535C82.5955 12.04 81.2604 11.7832 79.9253 11.7832C76.793 11.7832 74.1228 12.9643 71.812 15.3777C69.5013 17.7912 68.3716 20.6668 68.3716 24.1072C68.3716 27.5477 69.5013 30.4233 71.812 32.8367C74.1228 35.2502 76.793 36.4312 79.9253 36.4312C80.7983 36.4312 81.6199 36.3285 82.4928 36.1231C83.3144 35.8664 83.982 35.6096 84.5468 35.3529C85.1117 35.0961 85.6252 34.788 86.0873 34.4286C86.5495 34.0691 86.9089 33.8124 87.0116 33.7097L87.3711 33.3502V35.4556ZM73.5066 24.1072C73.5066 21.9505 74.1741 20.1533 75.5606 18.6641C76.947 17.175 78.5902 16.4047 80.4388 16.4047C82.2874 16.4047 83.9306 17.175 85.3171 18.6641C86.6522 20.1533 87.3711 21.9505 87.3711 24.1072C87.3711 26.2639 86.6522 28.0612 85.3171 29.5503C83.9306 31.0395 82.2874 31.8097 80.4388 31.8097C78.5902 31.8097 76.947 31.0395 75.5606 29.5503C74.1741 28.0612 73.5066 26.2639 73.5066 24.1072Z" fill="#323264"/>
<path d="M119.309 36.9447V21.0262C119.309 18.4074 118.333 16.1993 116.433 14.4534C114.533 12.6562 112.068 11.7832 109.039 11.7832C107.858 11.7832 106.677 11.9373 105.547 12.2454C104.417 12.6048 103.493 12.9643 102.825 13.3751C102.158 13.7859 101.49 14.248 100.874 14.8129C100.258 15.3264 99.8985 15.6858 99.6931 15.8912C99.539 16.0966 99.385 16.2507 99.2823 16.4047L102.62 19.7425L103.288 18.8695C103.698 18.3047 104.417 17.7912 105.496 17.2263C106.574 16.6615 107.755 16.4047 109.039 16.4047C110.528 16.4047 111.76 16.8669 112.736 17.7398C113.712 18.6128 114.174 19.7425 114.174 21.0262L105.188 22.5667C102.979 22.9262 101.182 23.7991 99.9498 25.1856C98.6661 26.572 97.9985 28.2666 97.9985 30.2692C97.9985 32.1692 98.8201 33.8124 100.463 35.2502C102.158 36.7393 104.212 37.4582 106.728 37.4582C107.601 37.4582 108.423 37.3555 109.244 37.0988C110.117 36.8934 110.785 36.6366 111.35 36.3799C111.914 36.1231 112.428 35.815 112.89 35.4556C113.352 35.0961 113.66 34.8394 113.866 34.7367C114.02 34.5826 114.122 34.4286 114.174 34.3772V36.9447H119.309ZM107.498 32.8367C106.163 32.8367 105.085 32.5286 104.315 31.9124C103.493 31.2962 103.134 30.5773 103.134 29.7557C103.134 28.8828 103.39 28.1125 103.955 27.5477C104.52 26.9828 105.29 26.572 106.215 26.418L114.174 25.1342V25.6477C114.174 27.9585 113.609 29.7044 112.428 30.9881C111.247 32.2205 109.604 32.8367 107.498 32.8367Z" fill="#323264"/>
<path d="M130.64 1H125.505V36.945H130.64V1Z" fill="#323264"/>
<path d="M153.989 15.121L153.681 14.7615C153.475 14.5561 153.167 14.2994 152.705 13.9399C152.243 13.5805 151.73 13.2724 151.165 12.9129C150.6 12.6048 149.83 12.3481 148.905 12.0913C147.981 11.8859 147.005 11.7832 146.03 11.7832C143.514 11.7832 141.46 12.5021 139.816 13.9399C138.122 15.4291 137.3 17.0723 137.3 18.9722C137.3 20.3587 137.608 21.4884 138.224 22.5154C138.841 23.491 139.611 24.2099 140.587 24.6207C141.511 25.0829 142.538 25.545 143.616 25.9045C144.695 26.2639 145.67 26.572 146.646 26.8288C147.57 27.1369 148.34 27.4963 148.957 27.9585C149.573 28.4206 149.881 29.0368 149.881 29.7557C149.881 30.68 149.522 31.4503 148.854 32.0151C148.186 32.5286 147.159 32.8367 145.773 32.8367C144.643 32.8367 143.514 32.5286 142.435 32.0151C141.357 31.4503 140.689 30.9881 140.33 30.6287C140.022 30.2692 139.765 29.9611 139.611 29.7557L136.273 33.0935L136.633 33.5556C136.889 33.8637 137.249 34.2232 137.762 34.634C138.327 35.0961 138.943 35.5069 139.611 35.9177C140.33 36.3285 141.254 36.688 142.333 36.9961C143.411 37.3042 144.592 37.4582 145.773 37.4582C148.495 37.4582 150.754 36.688 152.448 35.1988C154.143 33.7097 155.016 31.8611 155.016 29.7557C155.016 28.3693 154.708 27.1882 154.092 26.2639C153.475 25.2883 152.705 24.5694 151.73 24.1072C150.805 23.5937 149.778 23.1829 148.7 22.8235C147.622 22.464 146.646 22.1046 145.67 21.8992C144.746 21.6424 143.976 21.2316 143.36 20.7695C142.743 20.3073 142.435 19.6911 142.435 18.9722C142.435 18.3047 142.743 17.6885 143.411 17.175C144.027 16.6615 144.9 16.4047 146.03 16.4047C146.851 16.4047 147.673 16.6101 148.443 16.9696C149.265 17.329 149.83 17.6371 150.086 17.8939C150.343 18.1506 150.549 18.356 150.651 18.4587L153.989 15.121Z" fill="#323264"/>
<path d="M198.479 27.8896C198.479 29.8564 197.811 31.5264 196.512 32.8809C195.213 34.2354 193.636 34.9033 191.817 34.9033C189.999 34.9033 188.422 34.2354 187.123 32.8623C185.824 31.4893 185.175 29.8379 185.175 27.8711C185.175 25.9043 185.824 24.2529 187.123 22.8984C188.422 21.5439 189.999 20.8574 191.817 20.8574C193.636 20.8574 195.213 21.5439 196.512 22.8984C197.811 24.2529 198.479 25.9229 198.479 27.8896ZM182.521 27.8896C182.521 30.5615 183.412 32.8066 185.23 34.6436C187.049 36.4619 189.238 37.3896 191.836 37.3896C194.415 37.3896 196.604 36.4619 198.404 34.6436C200.223 32.8066 201.113 30.5615 201.113 27.8896C201.113 25.2178 200.223 22.9727 198.404 21.1357C196.604 19.2988 194.415 18.3711 191.836 18.3711C189.238 18.3711 187.049 19.2988 185.23 21.1357C183.412 22.9727 182.521 25.2178 182.521 27.8896ZM226.236 37H228.908V18.7607H226.236V26.5537H215.79V18.7607H213.137V37H215.79V29.0215H226.236V37ZM238.983 26.5537C237.258 26.8506 235.94 27.4629 235.031 28.3906C234.104 29.3184 233.658 30.543 233.658 32.0645C233.658 33.4561 234.271 34.6807 235.514 35.7568C236.757 36.833 238.297 37.3711 240.115 37.3711C240.839 37.3711 241.544 37.2783 242.23 37.0742C242.917 36.8887 243.474 36.666 243.9 36.4062C244.309 36.1465 244.698 35.8682 245.069 35.5342C245.44 35.2002 245.663 34.9775 245.774 34.8477C245.886 34.7178 245.96 34.6064 246.016 34.5322V37H248.669V25.4033C248.669 23.418 247.982 21.748 246.609 20.3936C245.236 19.0576 243.529 18.3711 241.451 18.3711C240.635 18.3711 239.818 18.501 239.039 18.7422C238.26 18.9834 237.629 19.2617 237.146 19.5586C236.664 19.874 236.2 20.2266 235.755 20.6162C235.31 21.0059 235.031 21.2842 234.901 21.4326C234.771 21.5811 234.679 21.7109 234.604 21.8037L236.312 23.5107L236.887 22.8613C237.258 22.416 237.87 21.9707 238.724 21.5254C239.577 21.0801 240.486 20.8574 241.451 20.8574C242.787 20.8574 243.882 21.2842 244.735 22.1191C245.589 22.9727 246.016 24.0674 246.016 25.4033L238.983 26.5537ZM240.115 34.9033C238.928 34.9033 237.981 34.6436 237.313 34.1055C236.646 33.5674 236.312 32.8809 236.312 32.0645C236.312 30.3574 237.462 29.2812 239.744 28.8359L246.016 27.6855V28.8359C246.016 30.6357 245.459 32.1016 244.346 33.2148C243.232 34.3467 241.822 34.9033 240.115 34.9033ZM253.4 27.8711C253.4 30.5059 254.291 32.751 256.091 34.6064C257.872 36.4619 260.024 37.3711 262.511 37.3711C263.401 37.3711 264.273 37.2412 265.127 36.9629C265.98 36.6846 266.686 36.3877 267.224 36.0537C267.78 35.7197 268.3 35.3486 268.782 34.9219C269.283 34.4951 269.617 34.1982 269.766 34.0127C269.914 33.8271 270.025 33.6973 270.1 33.5859L268.207 31.8789L267.595 32.6211C267.168 33.1406 266.481 33.6416 265.535 34.1426C264.57 34.6621 263.568 34.9033 262.511 34.9033C260.767 34.9033 259.245 34.2354 257.965 32.8809C256.685 31.5264 256.054 29.8564 256.054 27.8896C256.054 25.9229 256.685 24.2529 257.965 22.8984C259.245 21.5439 260.767 20.8574 262.511 20.8574C263.197 20.8574 263.865 20.9688 264.496 21.1729C265.127 21.3955 265.628 21.6367 266.036 21.8965C266.426 22.1562 266.797 22.4717 267.131 22.8242C267.465 23.1953 267.688 23.4365 267.78 23.5664C267.892 23.7148 267.966 23.8076 268.003 23.8818L269.914 21.9893L269.116 21.1172C268.597 20.5234 267.706 19.9111 266.481 19.2988C265.257 18.6865 263.921 18.3711 262.492 18.3711C260.024 18.3711 257.891 19.2988 256.091 21.1543C254.291 23.0098 253.4 25.2363 253.4 27.8711Z" fill="#323264"/>
<path fill-rule="evenodd" clip-rule="evenodd" d="M304.258 27.1454H292.329L297.585 11.1538L303.532 11.189L300.079 21.7352L306.008 21.7387L304.258 27.1454Z" fill="url(#paint0_linear)"/>
<path fill-rule="evenodd" clip-rule="evenodd" d="M279.904 47.9044H274C274 47.9044 284.754 14.794 287.266 7.06476C288.441 3.44844 291.809 1 295.609 1H306.165C309.348 1 312.005 2.34505 313.657 4.61793C315.307 6.89094 315.776 9.79933 314.813 12.7664C313.849 15.7334 312.939 18.5342 312.105 21.1004C310.98 24.5654 307.863 26.953 304.259 27.1471C304.259 27.1471 304.24 27.1411 309.29 11.5924C309.736 10.2203 309.573 8.8772 308.873 7.91395C308.173 6.95083 306.993 6.3808 305.432 6.3808H296.374C294.596 6.3808 293.02 7.52656 292.47 9.21887L279.904 47.9044Z" fill="#F0145A"/>
<path fill-rule="evenodd" clip-rule="evenodd" d="M175.227 1H181.071L165.845 47.8434H160L175.227 1Z" fill="#F0145A"/>
</g>
<defs>
<linearGradient id="paint0_linear" x1="292.328" y1="24.0824" x2="305.6" y2="31.0168" gradientUnits="userSpaceOnUse">
<stop stop-color="#F0145A"/>
<stop offset="1" stop-color="#693264"/>
</linearGradient>
<clipPath id="clip0">
<rect width="364" height="63" fill="white"/>
</clipPath>
</defs>
</svg>
