<svg width="32" height="32" viewBox="0 0 32 32" fill="none" xmlns="http://www.w3.org/2000/svg">
<path d="M16.0971 3.55322C9.25258 3.55322 3.68408 9.12172 3.68408 15.9662C3.68408 22.8112 9.25258 28.3802 16.0971 28.3802C22.9416 28.3802 28.5101 22.8112 28.5101 15.9662C28.5106 9.12172 22.9421 3.55322 16.0971 3.55322ZM22.9556 15.0587V15.0592L19.3621 17.6592L20.7461 21.8892C20.7681 21.9552 20.7796 22.0257 20.7796 22.0977C20.7796 22.4672 20.4806 22.7672 20.1111 22.7672C19.9641 22.7672 19.8291 22.7202 19.7191 22.6407L16.0976 20.0212L12.4761 22.6407C12.3661 22.7202 12.2311 22.7672 12.0846 22.7672C11.7146 22.7672 11.4151 22.4677 11.4151 22.0977C11.4151 22.0252 11.4271 21.9552 11.4491 21.8892L12.8336 17.6592L9.24008 15.0592V15.0587C9.07208 14.9377 8.96308 14.7402 8.96308 14.5172C8.96308 14.1477 9.26208 13.8487 9.63208 13.8487H14.0806L15.4581 9.63822C15.5421 9.36472 15.7966 9.16572 16.0981 9.16572C16.3991 9.16572 16.6541 9.36472 16.7376 9.63822L18.1151 13.8487H22.5636C22.9331 13.8487 23.2326 14.1477 23.2326 14.5172C23.2321 14.7402 23.1231 14.9377 22.9556 15.0587Z" fill="#F0145A"/>
</svg>
